<?xml version="1.0" standalone="no"?><!DOCTYPE svg PUBLIC "-//W3C//DTD SVG 1.1//EN" "http://www.w3.org/Graphics/SVG/1.1/DTD/svg11.dtd"><svg t="1589105872415" class="icon" viewBox="0 0 1024 1024" version="1.1" xmlns="http://www.w3.org/2000/svg" p-id="2522" xmlns:xlink="http://www.w3.org/1999/xlink" width="200" height="200"><defs><style type="text/css"></style></defs><path d="M972.8 198.4 972.8 198.4l-896 0 0 0C64 192 44.8 172.8 44.8 147.2c0-25.6 19.2-51.2 51.2-51.2 6.4 0 12.8 0 19.2 6.4l25.6-70.4 230.4 0C377.6 12.8 396.8 0 409.6 0l198.4 0c19.2 0 32 12.8 32 32l262.4 0 25.6 70.4c6.4 0 12.8-6.4 19.2-6.4 25.6 0 51.2 19.2 51.2 51.2C1011.2 172.8 998.4 192 972.8 198.4zM940.8 230.4c38.4 0 64 32 64 64 0 38.4-32 64-64 64l-32 0L908.8 1024 115.2 1024 115.2 364.8 83.2 364.8c-38.4 0-64-32-64-64 0-38.4 32-64 64-64L940.8 236.8zM678.4 857.6c0 38.4 32 64 64 64 38.4 0 64-32 64-64L806.4 460.8c0-38.4-32-64-64-64-38.4 0-64 32-64 64L678.4 857.6zM448 857.6c0 38.4 32 64 64 64 38.4 0 64-32 64-64L576 460.8c0-38.4-32-64-64-64-38.4 0-64 32-64 64L448 857.6zM211.2 857.6c0 38.4 32 64 64 64 38.4 0 64-32 64-64L339.2 460.8c0-38.4-32-64-64-64-38.4 0-64 32-64 64L211.2 857.6z" p-id="2523"></path></svg>